<svg width="48" height="36" viewBox="0 0 48 36" fill="none" xmlns="http://www.w3.org/2000/svg">
<path d="M43.5828 0H4.41722C1.98159 0 0 2.01795 0 4.50153C0 6.98196 1.98159 9 4.41722 9H43.5828C46.0184 9 48 6.98196 48 4.50153C48 2.01795 46.0184 0 43.5828 0Z" fill="black"/>
<path d="M43.5828 14H4.41722C1.98159 14 0 15.7937 0 18.0014C0 20.2062 1.98159 22 4.41722 22H43.5828C46.0184 22 48 20.2062 48 18.0014C48 15.7937 46.0184 14 43.5828 14Z" fill="black"/>
<path d="M43.5828 27H4.41722C1.98159 27 0 29.018 0 31.5015C0 33.982 1.98159 36 4.41722 36H43.5828C46.0184 36 48 33.982 48 31.5015C48 29.018 46.0184 27 43.5828 27Z" fill="black"/>
</svg>
